<svg id="Rain-Heavy--Streamline-Carbon" xmlns="http://www.w3.org/2000/svg" viewBox="0 0 16 16" height="16" width="16">
  <desc>
    Rain Heavy Streamline Icon: https://streamlinehq.com
  </desc>
  <defs></defs>
  <title>rain--heavy</title>
  <path d="M8.5 15a0.5 0.5 0 0 1 -0.4472 -0.7237l1 -2.00025a0.5 0.5 0 1 1 0.8944 0.44735l-1 2A0.49905 0.49905 0 0 1 8.5 15Z" fill="#000000" stroke-width="0.5"></path>
  <path d="M4 15a0.5 0.5 0 0 1 -0.4472 -0.7237l1 -2.00025a0.5 0.5 0 1 1 0.8944 0.44735l-1 2A0.49905 0.49905 0 0 1 4 15Z" fill="#000000" stroke-width="0.5"></path>
  <path d="M15 7.75a3.26615 3.26615 0 0 0 -2.5996 -3.1819 4.49715 4.49715 0 0 0 -8.8003 0 3.24525 3.24525 0 0 0 -0.7488 6.1111L2.053 12.27635a0.5 0.5 0 1 0 0.89425 0.4473L3.8087 11l3.3822 0 -0.6379 1.27635a0.5 0.5 0 1 0 0.89425 0.4473L8.30885 11h3.38205l-0.6379 1.27635a0.5 0.5 0 1 0 0.89425 0.4473l0.9722 -1.945A3.2529 3.2529 0 0 0 15 7.75ZM11.75 10h-7.5a2.24875 2.24875 0 0 1 -0.178 -4.4905l0.40775 -0.03195 0.04955 -0.406a3.4969 3.4969 0 0 1 6.9419 0l0.0493 0.406 0.4077 0.03195A2.24875 2.24875 0 0 1 11.75 10Z" fill="#000000" stroke-width="0.5"></path>
  <path id="_Transparent_Rectangle_" d="M0 0h16v16H0Z" fill="none" stroke-width="0.5"></path>
</svg>